<svg xmlns="http://www.w3.org/2000/svg" xmlns:xlink="http://www.w3.org/1999/xlink" viewBox="0 0 77 31">

<!-- Logo -->

    <path fill-rule="evenodd" clip-rule="evenodd" d="M3 3V16H8.5C12.0899 16 15 13.0899 15 9.5C15 5.91015 12.0899 3 8.5 3H3ZM2 0C0.895431 0 0 0.895431 0 2V17C0 18.1046 0.89543 19 2 19H8.5C13.7467 19 18 14.7467 18 9.5C18 4.25329 13.7467 0 8.5 0H2Z" fill="#1F2529"/>
<path fill-rule="evenodd" clip-rule="evenodd" d="M37 3H31C27.6863 3 25 5.68629 25 9V10C25 13.3137 27.6863 16 31 16H37C40.3137 16 43 13.3137 43 10V9C43 5.68629 40.3137 3 37 3ZM31 0C26.0294 0 22 4.02944 22 9V10C22 14.9706 26.0294 19 31 19H37C41.9706 19 46 14.9706 46 10V9C46 4.02944 41.9706 0 37 0H31Z" fill="#1F2529"/>
<path fill-rule="evenodd" clip-rule="evenodd" d="M71.0696 5.45084C71.4832 4.4866 71.9301 4.0505 72.2326 3.86876C72.5022 3.7067 72.7277 3.69897 72.9384 3.75805C73.4746 3.90842 74.0857 4.58158 74.0857 5.40482V18.8729H77.0001V5.40482C77.0001 3.50354 75.6683 1.67924 73.7758 1.14849C72.7722 0.867004 71.6619 0.972796 70.6566 1.57701C69.6845 2.16117 68.9183 3.14271 68.3612 4.44483L68.356 4.45701L64.9559 12.6304L64.9316 12.6934C64.0666 15.1193 63.6675 16.0345 62.8319 16.2298C62.4041 16.3298 62.1749 16.2439 62.1027 16.1996C62.0687 16.1788 61.971 16.1188 61.971 15.8485V5.40482C61.971 4.54175 61.6572 3.67009 61.1794 2.95734C60.7042 2.24839 59.975 1.56276 59.014 1.23177C57.9801 0.87568 56.8276 0.987188 55.7839 1.67136C54.8074 2.31144 54.0017 3.39736 53.3416 4.87734L50.684 11.8619L48 18.8729H50.684L56.0271 5.9356L56.0302 5.92875C56.5841 4.68603 57.1137 4.12712 57.457 3.9021C57.7338 3.72066 57.8868 3.74702 58.0065 3.78825C58.199 3.85458 58.4717 4.04873 58.7099 4.40405C58.9455 4.75557 59.0567 5.13266 59.0567 5.40482V15.8485C59.0567 16.9403 59.5661 17.9022 60.5037 18.4774C61.4029 19.029 62.5094 19.1135 63.5388 18.8729C65.6101 18.3888 66.6041 16.5909 67.6848 13.5876L71.0696 5.45084Z" fill="#1F2529"/>
<path d="M31.9707 28.3299C31.9949 28.7603 32.0969 29.1097 32.2768 29.3783C32.6193 29.881 33.223 30.1323 34.0878 30.1323C34.4753 30.1323 34.8282 30.0773 35.1464 29.9671C35.7622 29.7536 36.0701 29.3714 36.0701 28.8205C36.0701 28.4074 35.9404 28.113 35.6809 27.9374C35.418 27.7652 35.0063 27.6155 34.4459 27.4881L33.4132 27.2556C32.7387 27.1042 32.2613 26.9372 31.981 26.7547C31.4967 26.4379 31.2546 25.9645 31.2546 25.3344C31.2546 24.6527 31.4915 24.0932 31.9655 23.6559C32.4394 23.2186 33.1105 23 33.9789 23C34.778 23 35.456 23.1928 36.013 23.5784C36.5734 23.9606 36.8537 24.5735 36.8537 25.417H35.8833C35.8314 25.0108 35.7207 24.6992 35.5512 24.4822C35.2364 24.0863 34.7019 23.8883 33.9477 23.8883C33.3389 23.8883 32.9013 24.0157 32.6349 24.2705C32.3685 24.5253 32.2353 24.8214 32.2353 25.1588C32.2353 25.5307 32.391 25.8027 32.7023 25.9748C32.9064 26.085 33.3683 26.2227 34.0878 26.388L35.1568 26.6307C35.6723 26.7478 36.0701 26.9079 36.3503 27.111C36.8346 27.4657 37.0768 27.9804 37.0768 28.6553C37.0768 29.4954 36.7689 30.0962 36.1531 30.4577C35.5408 30.8192 34.8282 31 34.0152 31C33.0673 31 32.3253 30.759 31.789 30.277C31.2528 29.7984 30.9899 29.1493 31.0003 28.3299H31.9707Z" fill="#818C99"/>
<path d="M42.076 23.1911L43.5134 29.3628L45.2362 23.1911H46.3571L48.0799 29.3628L49.5172 23.1911H50.6485L48.6455 30.7779H47.5609L45.8018 24.4874L44.0323 30.7779H42.9478L40.9552 23.1911H42.076Z" fill="#818C99"/>
<path d="M55.0302 23.1911H56.0732V30.7779H55.0302V23.1911Z" fill="#818C99"/>
<path d="M61.6173 28.3299C61.6415 28.7603 61.7436 29.1097 61.9235 29.3783C62.2659 29.881 62.8696 30.1323 63.7345 30.1323C64.1219 30.1323 64.4748 30.0773 64.793 29.9671C65.4088 29.7536 65.7167 29.3714 65.7167 28.8205C65.7167 28.4074 65.587 28.113 65.3275 27.9374C65.0646 27.7652 64.6529 27.6155 64.0925 27.4881L63.0599 27.2556C62.3853 27.1042 61.9079 26.9372 61.6277 26.7547C61.1433 26.4379 60.9012 25.9645 60.9012 25.3344C60.9012 24.6527 61.1382 24.0932 61.6121 23.6559C62.086 23.2186 62.7572 23 63.6255 23C64.4246 23 65.1027 23.1928 65.6596 23.5784C66.2201 23.9606 66.5003 24.5735 66.5003 25.417H65.5299C65.478 25.0108 65.3673 24.6992 65.1978 24.4822C64.883 24.0863 64.3485 23.8883 63.5944 23.8883C62.9855 23.8883 62.5479 24.0157 62.2815 24.2705C62.0151 24.5253 61.8819 24.8214 61.8819 25.1588C61.8819 25.5307 62.0376 25.8027 62.349 25.9748C62.5531 26.085 63.0149 26.2227 63.7345 26.388L64.8034 26.6307C65.3189 26.7478 65.7167 26.9079 65.9969 27.111C66.4812 27.4657 66.7234 27.9804 66.7234 28.6553C66.7234 29.4954 66.4155 30.0962 65.7997 30.4577C65.1874 30.8192 64.4748 31 63.6618 31C62.7139 31 61.9719 30.759 61.4357 30.277C60.8995 29.7984 60.6365 29.1493 60.6469 28.3299H61.6173Z" fill="#818C99"/>
<path d="M71.8939 28.3299C71.9181 28.7603 72.0201 29.1097 72.2 29.3783C72.5425 29.881 73.1462 30.1323 74.0111 30.1323C74.3985 30.1323 74.7514 30.0773 75.0696 29.9671C75.6854 29.7536 75.9933 29.3714 75.9933 28.8205C75.9933 28.4074 75.8636 28.113 75.6041 27.9374C75.3412 27.7652 74.9295 27.6155 74.3691 27.4881L73.3365 27.2556C72.6619 27.1042 72.1845 26.9372 71.9043 26.7547C71.4199 26.4379 71.1778 25.9645 71.1778 25.3344C71.1778 24.6527 71.4147 24.0932 71.8887 23.6559C72.3626 23.2186 73.0338 23 73.9021 23C74.7012 23 75.3793 23.1928 75.9362 23.5784C76.4966 23.9606 76.7769 24.5735 76.7769 25.417H75.8065C75.7546 25.0108 75.6439 24.6992 75.4744 24.4822C75.1596 24.0863 74.6251 23.8883 73.8709 23.8883C73.2621 23.8883 72.8245 24.0157 72.5581 24.2705C72.2917 24.5253 72.1585 24.8214 72.1585 25.1588C72.1585 25.5307 72.3142 25.8027 72.6255 25.9748C72.8297 26.085 73.2915 26.2227 74.0111 26.388L75.08 26.6307C75.5955 26.7478 75.9933 26.9079 76.2735 27.111C76.7578 27.4657 77 27.9804 77 28.6553C77 29.4954 76.6921 30.0962 76.0763 30.4577C75.464 30.8192 74.7514 31 73.9384 31C72.9905 31 72.2485 30.759 71.7123 30.277C71.176 29.7984 70.9131 29.1493 70.9235 28.3299H71.8939Z" fill="#818C99"/>

<!-- END Logo -->

</svg>